<svg xmlns="http://www.w3.org/2000/svg" xmlns:xlink="http://www.w3.org/1999/xlink" width="500" zoomAndPan="magnify" viewBox="0 0 375 80.999996" height="108" preserveAspectRatio="xMidYMid meet" version="1.0"><defs><g/></defs><path stroke-linecap="butt" transform="matrix(0.831481, 0.000000000000000013, -0.000000000000000013, 0.831481, 4.694674, 15.971297)" fill="none" stroke-linejoin="miter" d="M 48.718413 -1.088287 C 52.810319 -1.088287 56.625047 -0.336617 60.167294 1.166724 C 63.723635 2.660669 66.866558 4.732461 69.596061 7.3821 C 72.325565 10.017644 74.449034 13.099493 75.966469 16.627647 C 77.497997 20.146404 78.263762 23.918851 78.263762 27.954382 C 78.263762 28.992627 78.226178 30.021476 78.146313 31.031533 C 78.06175 32.032194 77.883228 33.075137 77.60605 34.169757 L 70.972558 30.073153 C 70.864505 29.9651 70.798734 29.941611 70.775244 29.993288 C 70.747057 30.044965 70.732963 30.073153 70.732963 30.073153 L 75.726874 34.987199 C 77.206725 36.410675 78.118126 37.862339 78.465773 39.34219 C 78.822817 40.807947 79.001338 42.269007 79.001338 43.734764 C 79.001338 46.093131 78.418794 48.282371 77.244309 50.307183 C 76.074521 52.317902 74.514805 53.938692 72.569858 55.160156 C 70.639004 56.386319 68.529629 57.001749 66.237034 57.001749 C 64.813558 57.001749 63.333706 56.729268 61.802178 56.179609 C 60.284743 55.634648 58.7861 54.680966 57.310946 53.323261 L 53.233134 49.31122 C 53.167363 49.203167 53.068706 49.189074 52.932466 49.268938 C 52.800923 49.348803 52.76334 49.49444 52.815017 49.710545 L 56.911621 55.940014 C 55.605594 56.381621 54.266681 56.668195 52.894882 56.799737 C 51.537177 56.93128 50.146587 57.001749 48.718413 57.001749 C 44.682882 57.001749 40.910435 56.26887 37.391678 54.803113 C 33.877618 53.323261 30.781675 51.265563 28.103849 48.630019 C 25.430721 45.98038 23.326044 42.898531 21.794515 39.379773 C 20.272382 35.85162 19.516014 32.04159 19.516014 27.954382 C 19.516014 23.918851 20.272382 20.146404 21.794515 16.627647 C 23.326044 13.099493 25.430721 10.017644 28.103849 7.3821 C 30.781675 4.732461 33.877618 2.660669 37.391678 1.166724 C 40.910435 -0.336617 44.682882 -1.088287 48.718413 -1.088287 Z M 48.718413 24.759782 C 47.853992 24.759782 47.107019 25.08394 46.482193 25.736954 C 45.857367 26.389967 45.542605 27.127544 45.542605 27.954382 C 45.542605 28.818803 45.857367 29.542286 46.482193 30.110736 C 47.107019 30.683885 47.853992 30.97046 48.718413 30.97046 C 49.653303 30.97046 50.433161 30.683885 51.057987 30.110736 C 51.682813 29.542286 51.997575 28.818803 51.997575 27.954382 C 51.997575 27.127544 51.682813 26.389967 51.057987 25.736954 C 50.433161 25.08394 49.653303 24.759782 48.718413 24.759782 Z M 119.662015 57.739326 C 115.842589 57.739326 112.239269 57.006447 108.856751 55.540689 C 105.474234 54.065536 102.500438 52.045421 99.925966 49.489742 C 97.370286 46.919968 95.368964 43.955568 93.9173 40.601238 C 92.475032 37.24221 91.756247 33.652984 91.756247 29.833558 L 91.756247 12.075342 C 91.756247 9.679393 92.34349 7.485454 93.517975 5.502923 C 94.687762 3.506298 96.280364 1.908999 98.291083 0.711024 C 100.315895 -0.491649 102.523927 -1.088287 104.919877 -1.088287 C 107.334619 -1.088287 109.514463 -0.491649 111.473504 0.711024 C 113.446639 1.908999 115.001658 3.506298 116.147955 5.502923 C 117.294253 7.485454 117.867401 9.679393 117.867401 12.075342 L 117.867401 28.114112 C 117.867401 28.607395 118.027131 29.072492 118.346591 29.514098 C 118.680145 29.951006 119.117054 30.17181 119.662015 30.17181 C 120.155299 30.17181 120.578113 29.951006 120.921063 29.514098 C 121.282804 29.072492 121.461326 28.607395 121.461326 28.114112 L 121.461326 12.075342 C 121.461326 9.679393 122.048569 7.485454 123.218356 5.502923 C 124.392841 3.506298 125.980745 1.908999 127.996162 0.711024 C 130.016276 -0.491649 132.229006 -1.088287 134.624956 -1.088287 C 136.969228 -1.088287 139.106791 -0.491649 141.037645 0.711024 C 142.982592 1.908999 144.551704 3.506298 145.754377 5.502923 C 146.952352 7.485454 147.548991 9.679393 147.548991 12.075342 L 147.548991 29.833558 C 147.548991 33.652984 146.811414 37.24221 145.331563 40.601238 C 143.865805 43.955568 141.850389 46.919968 139.280615 49.489742 C 136.724935 52.045421 133.765233 54.065536 130.410903 55.540689 C 127.056573 57.006447 123.472045 57.739326 119.662015 57.739326 Z M 161.135435 12.075342 C 161.135435 9.623017 161.69449 7.405589 162.817298 5.423058 C 163.935408 3.426433 165.485728 1.83853 167.468259 0.668742 C 169.464884 -0.501045 171.743385 -1.088287 174.299065 -1.088287 L 195.674695 -1.088287 C 198.230374 -1.088287 200.461896 -0.463461 202.364562 0.790889 C 204.28602 2.040541 205.770569 3.666028 206.822908 5.662653 C 207.884643 7.645184 208.420208 9.759258 208.420208 11.995477 C 208.420208 14.283374 207.875247 16.388052 206.780626 18.30951 C 205.704798 20.212175 204.163874 21.734308 202.167249 22.880606 C 200.184718 24.026903 197.798164 24.651729 195.016983 24.759782 C 194.735107 24.759782 194.594168 24.914814 194.594168 25.22018 C 194.594168 25.511453 194.735107 25.713464 195.016983 25.816819 C 197.253203 26.098695 199.428349 25.953059 201.547121 25.37991 C 203.679986 24.806761 205.56386 23.674558 207.198743 21.983299 C 208.011487 23.78261 208.420208 25.689974 208.420208 27.714787 C 208.420208 31.524817 207.259816 34.545592 204.943732 36.78651 C 202.627647 39.02273 199.588079 40.361643 195.834425 40.798551 C 195.557246 40.798551 195.416308 40.967677 195.416308 41.301231 C 195.416308 41.620691 195.557246 41.780421 195.834425 41.780421 C 197.953196 42.005922 200.024988 41.846192 202.045102 41.301231 C 204.069915 40.751572 205.841038 39.572389 207.358473 37.763682 C 207.80008 38.482467 208.114842 39.281117 208.298061 40.159632 C 208.500073 41.024053 208.59873 42.33008 208.59873 44.077714 C 208.59873 45.327366 208.354437 46.703863 207.861153 48.211902 C 207.367869 49.701149 206.588011 51.119927 205.521578 52.463538 C 204.459844 53.797753 203.120931 54.887676 201.509537 55.742701 C 199.907539 56.578934 197.96729 57.001749 195.674695 57.001749 L 174.139335 57.001749 C 171.743385 57.001749 169.544749 56.414506 167.548124 55.240021 C 165.565593 54.070234 164.001179 52.50582 162.854881 50.546778 C 161.708584 48.578341 161.135435 46.417289 161.135435 44.077714 Z M 280.096688 44.975021 C 280.096688 47.756202 279.495352 50.10987 278.297377 52.02663 C 277.099402 53.929296 275.516196 55.376261 273.543061 56.362829 C 271.588718 57.330605 269.465249 57.819191 267.172654 57.819191 C 265.481395 57.819191 263.82772 57.504428 262.216326 56.879602 C 260.609631 56.254776 259.176759 55.315188 257.922409 54.065536 L 243.861472 39.901245 C 243.739326 39.619368 243.560804 39.619368 243.321209 39.901245 C 243.081614 40.169027 243.015843 40.441508 243.123895 40.718686 L 247.774857 47.911234 C 247.178218 50.74879 245.679575 53.111854 243.283625 55.000426 C 240.882978 56.879602 238.153474 57.819191 235.090417 57.819191 C 232.694467 57.819191 230.495831 57.231948 228.499206 56.062161 C 226.516675 54.887676 224.938167 53.323261 223.763682 51.368918 C 222.593895 49.395783 222.006652 47.183053 222.006652 44.735426 L 222.006652 11.995477 C 222.006652 9.599528 222.593895 7.419683 223.763682 5.460642 C 224.938167 3.492205 226.516675 1.908999 228.499206 0.711024 C 230.495831 -0.491649 232.694467 -1.088287 235.090417 -1.088287 C 237.063552 -1.088287 238.919239 -0.637285 240.666872 0.269417 C 242.409808 1.162026 243.880264 2.233157 245.078239 3.487507 L 258.425088 16.590063 C 258.528443 16.801471 258.702267 16.829658 258.941862 16.669928 C 259.19555 16.496104 259.270718 16.303489 259.162665 16.092082 L 254.328484 9.059264 C 254.77009 7.194182 255.587532 5.502923 256.785507 3.985488 C 257.983482 2.45396 259.468031 1.227797 261.239155 0.307001 C 263.010278 -0.623191 264.908246 -1.088287 266.933059 -1.088287 C 269.822292 -1.088287 272.232336 -0.491649 274.163189 0.711024 C 276.108137 1.908999 277.578592 3.492205 278.579254 5.460642 C 279.589311 7.419683 280.096688 9.599528 280.096688 11.995477 Z M 322.805667 -1.088287 L 334.249851 -1.088287 C 336.824322 -1.088287 339.140407 -0.449368 341.202803 0.828472 C 343.279292 2.106312 344.947061 3.797571 346.196714 5.902248 C 347.46046 8.006926 348.094682 10.285427 348.094682 12.733054 C 348.094682 15.302827 347.46046 17.642402 346.196714 19.747079 C 344.947061 21.837663 343.279292 23.496036 341.202803 24.717501 C 339.140407 25.943663 336.824322 26.559093 334.249851 26.559093 C 332.239132 26.559093 330.430425 26.244331 328.819031 25.619505 C 327.207637 24.994679 325.774766 24.679917 324.525113 24.679917 C 323.646598 24.679917 322.89023 24.994679 322.265404 25.619505 C 321.640578 26.244331 321.325816 26.996002 321.325816 27.874517 C 321.325816 28.68726 321.640578 29.382556 322.265404 29.951006 C 322.89023 30.524155 323.646598 30.81073 324.525113 30.81073 C 325.774766 30.81073 327.207637 30.500666 328.819031 29.871141 C 330.430425 29.246315 332.239132 28.936251 334.249851 28.936251 C 336.824322 28.936251 339.140407 29.593963 341.202803 30.914084 C 343.279292 32.215414 344.947061 33.948954 346.196714 36.105309 C 347.46046 38.24757 348.094682 40.605936 348.094682 43.175709 C 348.094682 45.628034 347.46046 47.906536 346.196714 50.006515 C 344.947061 52.097099 343.279292 53.788357 341.202803 55.080291 C 339.140407 56.362829 336.824322 57.001749 334.249851 57.001749 L 322.406342 57.001749 C 318.478864 57.001749 314.79098 56.226589 311.337994 54.680966 C 307.903799 53.125948 304.859534 50.978989 302.209895 48.249485 C 299.57435 45.519982 297.516652 42.409945 296.036801 38.924073 C 294.575742 35.433503 293.842863 31.750318 293.842863 27.874517 C 293.842863 23.838986 294.585137 20.066539 296.079083 16.547782 C 297.582424 13.019628 299.673007 9.937779 302.350833 7.302235 C 305.02866 4.652596 308.110509 2.594898 311.601079 1.129141 C 315.086951 -0.350711 318.821813 -1.088287 322.805667 -1.088287 Z M 404.615606 57.001749 C 402.219656 57.001749 400.011624 56.414506 397.986812 55.240021 C 395.976093 54.070234 394.383491 52.50582 393.209006 50.546778 C 392.039219 48.578341 391.451976 46.393799 391.451976 43.997849 L 391.451976 41.197876 C 391.451976 40.718686 391.273454 40.30057 390.911713 39.938828 C 390.568763 39.581785 390.145949 39.403263 389.657363 39.403263 C 389.164079 39.403263 388.736566 39.581785 388.374825 39.938828 C 388.031875 40.30057 387.858051 40.718686 387.858051 41.197876 L 387.858051 43.997849 C 387.858051 46.445476 387.280205 48.658206 386.119813 50.626643 C 384.973516 52.585685 383.423195 54.136005 381.464154 55.282303 C 379.509811 56.4286 377.297081 57.001749 374.83536 57.001749 C 372.491088 57.001749 370.320639 56.4286 368.319316 55.282303 C 366.336785 54.136005 364.758277 52.585685 363.58849 50.626643 C 362.414005 48.658206 361.83146 46.445476 361.83146 43.997849 L 361.83146 11.835747 C 361.83146 9.383422 362.414005 7.194182 363.58849 5.263328 C 364.758277 3.318381 366.336785 1.772758 368.319316 0.631159 C 370.320639 -0.515139 372.491088 -1.088287 374.83536 -1.088287 C 377.297081 -1.088287 379.509811 -0.515139 381.464154 0.631159 C 383.423195 1.772758 384.973516 3.318381 386.119813 5.263328 C 387.280205 7.194182 387.858051 9.383422 387.858051 11.835747 L 387.858051 14.77196 C 387.858051 15.208869 388.031875 15.612892 388.374825 15.969935 C 388.736566 16.317583 389.164079 16.491406 389.657363 16.491406 C 390.145949 16.491406 390.568763 16.317583 390.911713 15.969935 C 391.273454 15.612892 391.451976 15.208869 391.451976 14.77196 L 391.451976 11.835747 C 391.451976 9.439798 392.039219 7.274047 393.209006 5.343193 C 394.383491 3.398246 395.976093 1.83853 397.986812 0.668742 C 400.011624 -0.501045 402.219656 -1.088287 404.615606 -1.088287 C 407.016253 -1.088287 409.1914 -0.501045 411.150441 0.668742 C 413.118878 1.83853 414.692689 3.398246 415.862476 5.343193 C 417.036961 7.274047 417.619506 9.439798 417.619506 11.835747 L 417.619506 43.997849 C 417.619506 46.393799 417.036961 48.578341 415.862476 50.546778 C 414.692689 52.50582 413.118878 54.070234 411.150441 55.240021 C 409.1914 56.414506 407.016253 57.001749 404.615606 57.001749 Z M 404.615606 57.001749 " stroke="#ffffff" stroke-width="21.479902" stroke-opacity="1" stroke-miterlimit="4"/><g fill="#5c9dd6" fill-opacity="1"><g transform="translate(20.921552, 63.365733)"><g><path d="M 24.28125 -48.296875 C 27.6875 -48.296875 30.863281 -47.671875 33.8125 -46.421875 C 36.757812 -45.179688 39.363281 -43.460938 41.625 -41.265625 C 43.894531 -39.066406 45.664062 -36.503906 46.9375 -33.578125 C 48.207031 -30.648438 48.84375 -27.507812 48.84375 -24.15625 C 48.84375 -23.289062 48.804688 -22.4375 48.734375 -21.59375 C 48.671875 -20.757812 48.523438 -19.890625 48.296875 -18.984375 L 42.796875 -22.375 C 42.703125 -22.46875 42.644531 -22.488281 42.625 -22.4375 C 42.601562 -22.394531 42.59375 -22.375 42.59375 -22.375 L 46.734375 -18.296875 C 47.960938 -17.117188 48.722656 -15.914062 49.015625 -14.6875 C 49.304688 -13.46875 49.453125 -12.242188 49.453125 -11.015625 C 49.453125 -9.066406 48.960938 -7.253906 47.984375 -5.578125 C 47.015625 -3.898438 45.722656 -2.550781 44.109375 -1.53125 C 42.503906 -0.507812 40.75 0 38.84375 0 C 37.664062 0 36.441406 -0.222656 35.171875 -0.671875 C 33.898438 -1.128906 32.65625 -1.925781 31.4375 -3.0625 L 28.03125 -6.390625 C 27.976562 -6.484375 27.894531 -6.492188 27.78125 -6.421875 C 27.675781 -6.359375 27.644531 -6.238281 27.6875 -6.0625 L 31.09375 -0.890625 C 30 -0.523438 28.882812 -0.285156 27.75 -0.171875 C 26.625 -0.0546875 25.46875 0 24.28125 0 C 20.925781 0 17.785156 -0.609375 14.859375 -1.828125 C 11.941406 -3.054688 9.367188 -4.769531 7.140625 -6.96875 C 4.921875 -9.164062 3.175781 -11.726562 1.90625 -14.65625 C 0.632812 -17.582031 0 -20.75 0 -24.15625 C 0 -27.507812 0.632812 -30.648438 1.90625 -33.578125 C 3.175781 -36.503906 4.921875 -39.066406 7.140625 -41.265625 C 9.367188 -43.460938 11.941406 -45.179688 14.859375 -46.421875 C 17.785156 -47.671875 20.925781 -48.296875 24.28125 -48.296875 Z M 24.28125 -26.796875 C 23.5625 -26.796875 22.941406 -26.523438 22.421875 -25.984375 C 21.898438 -25.441406 21.640625 -24.832031 21.640625 -24.15625 C 21.640625 -23.425781 21.898438 -22.820312 22.421875 -22.34375 C 22.941406 -21.875 23.5625 -21.640625 24.28125 -21.640625 C 25.050781 -21.640625 25.695312 -21.875 26.21875 -22.34375 C 26.75 -22.820312 27.015625 -23.425781 27.015625 -24.15625 C 27.015625 -24.832031 26.75 -25.441406 26.21875 -25.984375 C 25.695312 -26.523438 25.050781 -26.796875 24.28125 -26.796875 Z M 24.28125 -26.796875 "/></g></g></g><g fill="#5c9dd6" fill-opacity="1"><g transform="translate(80.989856, 63.365733)"><g><path d="M 23.203125 0.609375 C 20.023438 0.609375 17.03125 0 14.21875 -1.21875 C 11.40625 -2.445312 8.929688 -4.125 6.796875 -6.25 C 4.671875 -8.382812 3.003906 -10.847656 1.796875 -13.640625 C 0.597656 -16.429688 0 -19.414062 0 -22.59375 L 0 -37.34375 C 0 -39.34375 0.484375 -41.171875 1.453125 -42.828125 C 2.429688 -44.484375 3.757812 -45.804688 5.4375 -46.796875 C 7.113281 -47.796875 8.953125 -48.296875 10.953125 -48.296875 C 12.953125 -48.296875 14.765625 -47.796875 16.390625 -46.796875 C 18.023438 -45.804688 19.316406 -44.484375 20.265625 -42.828125 C 21.222656 -41.171875 21.703125 -39.34375 21.703125 -37.34375 L 21.703125 -24.015625 C 21.703125 -23.609375 21.835938 -23.222656 22.109375 -22.859375 C 22.378906 -22.492188 22.742188 -22.3125 23.203125 -22.3125 C 23.609375 -22.3125 23.957031 -22.492188 24.25 -22.859375 C 24.550781 -23.222656 24.703125 -23.609375 24.703125 -24.015625 L 24.703125 -37.34375 C 24.703125 -39.34375 25.1875 -41.171875 26.15625 -42.828125 C 27.132812 -44.484375 28.460938 -45.804688 30.140625 -46.796875 C 31.816406 -47.796875 33.648438 -48.296875 35.640625 -48.296875 C 37.597656 -48.296875 39.378906 -47.796875 40.984375 -46.796875 C 42.597656 -45.804688 43.898438 -44.484375 44.890625 -42.828125 C 45.890625 -41.171875 46.390625 -39.34375 46.390625 -37.34375 L 46.390625 -22.59375 C 46.390625 -19.414062 45.773438 -16.429688 44.546875 -13.640625 C 43.328125 -10.847656 41.648438 -8.382812 39.515625 -6.25 C 37.390625 -4.125 34.929688 -2.445312 32.140625 -1.21875 C 29.347656 0 26.367188 0.609375 23.203125 0.609375 Z M 23.203125 0.609375 "/></g></g></g><g fill="#5c9dd6" fill-opacity="1"><g transform="translate(138.677268, 63.365733)"><g><path d="M 0 -37.34375 C 0 -39.382812 0.460938 -41.234375 1.390625 -42.890625 C 2.328125 -44.546875 3.617188 -45.859375 5.265625 -46.828125 C 6.921875 -47.804688 8.816406 -48.296875 10.953125 -48.296875 L 28.703125 -48.296875 C 30.835938 -48.296875 32.695312 -47.773438 34.28125 -46.734375 C 35.875 -45.691406 37.113281 -44.34375 38 -42.6875 C 38.882812 -41.03125 39.328125 -39.273438 39.328125 -37.421875 C 39.328125 -35.515625 38.867188 -33.765625 37.953125 -32.171875 C 37.046875 -30.585938 35.765625 -29.316406 34.109375 -28.359375 C 32.460938 -27.410156 30.484375 -26.890625 28.171875 -26.796875 C 27.941406 -26.796875 27.828125 -26.671875 27.828125 -26.421875 C 27.828125 -26.179688 27.941406 -26.015625 28.171875 -25.921875 C 30.023438 -25.691406 31.835938 -25.816406 33.609375 -26.296875 C 35.378906 -26.773438 36.941406 -27.71875 38.296875 -29.125 C 38.984375 -27.625 39.328125 -26.035156 39.328125 -24.359375 C 39.328125 -21.179688 38.363281 -18.660156 36.4375 -16.796875 C 34.507812 -14.941406 31.976562 -13.832031 28.84375 -13.46875 C 28.613281 -13.46875 28.5 -13.332031 28.5 -13.0625 C 28.5 -12.789062 28.613281 -12.65625 28.84375 -12.65625 C 30.613281 -12.46875 32.335938 -12.601562 34.015625 -13.0625 C 35.691406 -13.519531 37.164062 -14.492188 38.4375 -15.984375 C 38.800781 -15.398438 39.0625 -14.742188 39.21875 -14.015625 C 39.375 -13.285156 39.453125 -12.195312 39.453125 -10.75 C 39.453125 -9.707031 39.25 -8.5625 38.84375 -7.3125 C 38.4375 -6.0625 37.789062 -4.878906 36.90625 -3.765625 C 36.019531 -2.660156 34.90625 -1.753906 33.5625 -1.046875 C 32.226562 -0.347656 30.609375 0 28.703125 0 L 10.8125 0 C 8.820312 0 7 -0.484375 5.34375 -1.453125 C 3.6875 -2.429688 2.378906 -3.738281 1.421875 -5.375 C 0.472656 -7.007812 0 -8.800781 0 -10.75 Z M 0 -37.34375 "/></g></g></g><g fill="#5c9dd6" fill-opacity="1"><g transform="translate(189.290028, 63.365733)"><g><path d="M 48.296875 -10 C 48.296875 -7.6875 47.796875 -5.734375 46.796875 -4.140625 C 45.804688 -2.554688 44.492188 -1.351562 42.859375 -0.53125 C 41.222656 0.28125 39.453125 0.6875 37.546875 0.6875 C 36.140625 0.6875 34.769531 0.425781 33.4375 -0.09375 C 32.101562 -0.625 30.910156 -1.410156 29.859375 -2.453125 L 18.171875 -14.21875 C 18.078125 -14.445312 17.925781 -14.445312 17.71875 -14.21875 C 17.519531 -13.988281 17.460938 -13.757812 17.546875 -13.53125 L 21.4375 -7.546875 C 20.9375 -5.191406 19.6875 -3.226562 17.6875 -1.65625 C 15.6875 -0.09375 13.421875 0.6875 10.890625 0.6875 C 8.890625 0.6875 7.0625 0.195312 5.40625 -0.78125 C 3.75 -1.757812 2.429688 -3.0625 1.453125 -4.6875 C 0.484375 -6.320312 0 -8.160156 0 -10.203125 L 0 -37.421875 C 0 -39.410156 0.484375 -41.222656 1.453125 -42.859375 C 2.429688 -44.492188 3.75 -45.804688 5.40625 -46.796875 C 7.0625 -47.796875 8.890625 -48.296875 10.890625 -48.296875 C 12.515625 -48.296875 14.050781 -47.921875 15.5 -47.171875 C 16.957031 -46.429688 18.1875 -45.539062 19.1875 -44.5 L 30.28125 -33.609375 C 30.363281 -33.421875 30.503906 -33.394531 30.703125 -33.53125 C 30.910156 -33.675781 30.972656 -33.835938 30.890625 -34.015625 L 26.875 -39.859375 C 27.238281 -41.398438 27.914062 -42.804688 28.90625 -44.078125 C 29.90625 -45.347656 31.140625 -46.367188 32.609375 -47.140625 C 34.085938 -47.910156 35.664062 -48.296875 37.34375 -48.296875 C 39.75 -48.296875 41.753906 -47.796875 43.359375 -46.796875 C 44.972656 -45.804688 46.195312 -44.492188 47.03125 -42.859375 C 47.875 -41.222656 48.296875 -39.410156 48.296875 -37.421875 Z M 48.296875 -10 "/></g></g></g><g fill="#5c9dd6" fill-opacity="1"><g transform="translate(249.018214, 63.365733)"><g><path d="M 24.078125 -48.296875 L 33.609375 -48.296875 C 35.742188 -48.296875 37.671875 -47.765625 39.390625 -46.703125 C 41.109375 -45.640625 42.488281 -44.234375 43.53125 -42.484375 C 44.582031 -40.734375 45.109375 -38.84375 45.109375 -36.8125 C 45.109375 -34.675781 44.582031 -32.734375 43.53125 -30.984375 C 42.488281 -29.242188 41.109375 -27.863281 39.390625 -26.84375 C 37.671875 -25.820312 35.742188 -25.3125 33.609375 -25.3125 C 31.929688 -25.3125 30.421875 -25.570312 29.078125 -26.09375 C 27.742188 -26.613281 26.554688 -26.875 25.515625 -26.875 C 24.785156 -26.875 24.160156 -26.613281 23.640625 -26.09375 C 23.117188 -25.570312 22.859375 -24.945312 22.859375 -24.21875 C 22.859375 -23.539062 23.117188 -22.960938 23.640625 -22.484375 C 24.160156 -22.003906 24.785156 -21.765625 25.515625 -21.765625 C 26.554688 -21.765625 27.742188 -22.023438 29.078125 -22.546875 C 30.421875 -23.066406 31.929688 -23.328125 33.609375 -23.328125 C 35.742188 -23.328125 37.671875 -22.78125 39.390625 -21.6875 C 41.109375 -20.601562 42.488281 -19.164062 43.53125 -17.375 C 44.582031 -15.582031 45.109375 -13.625 45.109375 -11.5 C 45.109375 -9.457031 44.582031 -7.5625 43.53125 -5.8125 C 42.488281 -4.070312 41.109375 -2.664062 39.390625 -1.59375 C 37.671875 -0.53125 35.742188 0 33.609375 0 L 23.75 0 C 20.476562 0 17.410156 -0.644531 14.546875 -1.9375 C 11.691406 -3.226562 9.164062 -5.007812 6.96875 -7.28125 C 4.769531 -9.550781 3.054688 -12.132812 1.828125 -15.03125 C 0.609375 -17.9375 0 -21 0 -24.21875 C 0 -27.570312 0.617188 -30.710938 1.859375 -33.640625 C 3.109375 -36.566406 4.84375 -39.128906 7.0625 -41.328125 C 9.289062 -43.523438 11.851562 -45.234375 14.75 -46.453125 C 17.65625 -47.679688 20.765625 -48.296875 24.078125 -48.296875 Z M 24.078125 -48.296875 "/></g></g></g><g fill="#5c9dd6" fill-opacity="1"><g transform="translate(305.549201, 63.365733)"><g><path d="M 35.578125 0 C 33.585938 0 31.75 -0.484375 30.0625 -1.453125 C 28.382812 -2.429688 27.054688 -3.738281 26.078125 -5.375 C 25.109375 -7.007812 24.625 -8.820312 24.625 -10.8125 L 24.625 -13.125 C 24.625 -13.539062 24.476562 -13.894531 24.1875 -14.1875 C 23.894531 -14.476562 23.539062 -14.625 23.125 -14.625 C 22.71875 -14.625 22.367188 -14.476562 22.078125 -14.1875 C 21.785156 -13.894531 21.640625 -13.539062 21.640625 -13.125 L 21.640625 -10.8125 C 21.640625 -8.769531 21.160156 -6.929688 20.203125 -5.296875 C 19.253906 -3.671875 17.960938 -2.378906 16.328125 -1.421875 C 14.691406 -0.472656 12.851562 0 10.8125 0 C 8.863281 0 7.0625 -0.472656 5.40625 -1.421875 C 3.75 -2.378906 2.429688 -3.671875 1.453125 -5.296875 C 0.484375 -6.929688 0 -8.769531 0 -10.8125 L 0 -37.546875 C 0 -39.585938 0.484375 -41.410156 1.453125 -43.015625 C 2.429688 -44.628906 3.75 -45.910156 5.40625 -46.859375 C 7.0625 -47.816406 8.863281 -48.296875 10.8125 -48.296875 C 12.851562 -48.296875 14.691406 -47.816406 16.328125 -46.859375 C 17.960938 -45.910156 19.253906 -44.628906 20.203125 -43.015625 C 21.160156 -41.410156 21.640625 -39.585938 21.640625 -37.546875 L 21.640625 -35.109375 C 21.640625 -34.742188 21.785156 -34.410156 22.078125 -34.109375 C 22.367188 -33.816406 22.71875 -33.671875 23.125 -33.671875 C 23.539062 -33.671875 23.894531 -33.816406 24.1875 -34.109375 C 24.476562 -34.410156 24.625 -34.742188 24.625 -35.109375 L 24.625 -37.546875 C 24.625 -39.546875 25.109375 -41.347656 26.078125 -42.953125 C 27.054688 -44.566406 28.382812 -45.859375 30.0625 -46.828125 C 31.75 -47.804688 33.585938 -48.296875 35.578125 -48.296875 C 37.578125 -48.296875 39.390625 -47.804688 41.015625 -46.828125 C 42.648438 -45.859375 43.953125 -44.566406 44.921875 -42.953125 C 45.898438 -41.347656 46.390625 -39.546875 46.390625 -37.546875 L 46.390625 -10.8125 C 46.390625 -8.820312 45.898438 -7.007812 44.921875 -5.375 C 43.953125 -3.738281 42.648438 -2.429688 41.015625 -1.453125 C 39.390625 -0.484375 37.578125 0 35.578125 0 Z M 35.578125 0 "/></g></g></g></svg>